<?xml version="1.0" encoding="UTF-8"?>
<!DOCTYPE svg PUBLIC "-//W3C//DTD SVG 1.1//EN" "http://www.w3.org/Graphics/SVG/1.1/DTD/svg11.dtd">
<!-- Creator: CorelDRAW 2026 -->
<svg xmlns="http://www.w3.org/2000/svg" xml:space="preserve" width="146.589mm" height="46.2298mm" version="1.1" style="shape-rendering:geometricPrecision; text-rendering:geometricPrecision; image-rendering:optimizeQuality; fill-rule:evenodd; clip-rule:evenodd"
viewBox="0 0 429.09 135.32"
 xmlns:xlink="http://www.w3.org/1999/xlink"
 xmlns:xodm="http://www.corel.com/coreldraw/odm/2003">
 <defs>
  <style type="text/css">
   <![CDATA[
    .fil0 {fill:white;fill-rule:nonzero}
   ]]>
  </style>
 </defs>
 <g id="Layer_x0020_1">
  <metadata id="CorelCorpID_0Corel-Layer"/>
  <g id="_105553623228448">
   <path class="fil0" d="M24.75 9.32c6.96,0 13.05,1.38 18.26,4.14 5.21,2.76 9.24,6.64 12.09,11.62 2.86,4.99 4.28,10.74 4.28,17.27 0,6.46 -1.43,12.2 -4.28,17.22 -2.85,5.02 -6.9,8.91 -12.14,11.67 -5.24,2.76 -11.31,4.14 -18.21,4.14l-24.75 0 0 -66.07 24.75 0zm-1.04 52.14c6.09,0 10.82,-1.66 14.21,-4.99 3.39,-3.33 5.08,-8.03 5.08,-14.12 0,-6.09 -1.69,-10.82 -5.08,-14.21 -3.39,-3.39 -8.13,-5.08 -14.21,-5.08l-7.62 0 0 38.4 7.62 0zm89.33 -13.18c0,1.51 -0.09,3.07 -0.28,4.71l-36.42 0c0.25,3.26 1.3,5.76 3.15,7.48 1.85,1.73 4.13,2.59 6.82,2.59 4.02,0 6.81,-1.69 8.38,-5.08l17.13 0c-0.88,3.45 -2.46,6.56 -4.75,9.32 -2.29,2.76 -5.16,4.92 -8.61,6.49 -3.45,1.57 -7.31,2.35 -11.58,2.35 -5.15,0 -9.73,-1.1 -13.74,-3.29 -4.02,-2.2 -7.15,-5.33 -9.41,-9.41 -2.26,-4.08 -3.39,-8.85 -3.39,-14.31 0,-5.46 1.11,-10.23 3.34,-14.31 2.23,-4.08 5.35,-7.22 9.36,-9.41 4.02,-2.2 8.63,-3.29 13.84,-3.29 5.08,0 9.6,1.07 13.55,3.2 3.95,2.13 7.04,5.18 9.27,9.13 2.23,3.95 3.34,8.56 3.34,13.83zm-16.47 -4.24c0,-2.76 -0.94,-4.96 -2.82,-6.59 -1.88,-1.63 -4.24,-2.45 -7.06,-2.45 -2.7,0 -4.97,0.78 -6.82,2.35 -1.85,1.57 -3,3.8 -3.44,6.68l20.14 0zm41.43 32.09c-4.58,0 -8.66,-0.78 -12.24,-2.35 -3.58,-1.57 -6.4,-3.72 -8.47,-6.45 -2.07,-2.73 -3.23,-5.79 -3.48,-9.18l15.91 0c0.19,1.82 1.04,3.29 2.54,4.42 1.51,1.13 3.36,1.69 5.55,1.69 2.01,0 3.56,-0.39 4.66,-1.18 1.1,-0.78 1.65,-1.8 1.65,-3.06 0,-1.51 -0.78,-2.62 -2.35,-3.34 -1.57,-0.72 -4.11,-1.52 -7.62,-2.4 -3.76,-0.88 -6.9,-1.8 -9.41,-2.78 -2.51,-0.97 -4.67,-2.51 -6.49,-4.61 -1.82,-2.1 -2.73,-4.94 -2.73,-8.52 0,-3.01 0.83,-5.76 2.49,-8.23 1.66,-2.48 4.11,-4.44 7.34,-5.88 3.23,-1.44 7.07,-2.16 11.53,-2.16 6.59,0 11.78,1.63 15.58,4.89 3.8,3.26 5.98,7.59 6.54,12.99l-14.87 0c-0.25,-1.82 -1.05,-3.26 -2.4,-4.33 -1.35,-1.07 -3.12,-1.6 -5.32,-1.6 -1.88,0 -3.33,0.36 -4.33,1.08 -1,0.72 -1.51,1.71 -1.51,2.96 0,1.51 0.8,2.64 2.4,3.39 1.6,0.75 4.09,1.51 7.48,2.26 3.89,1 7.06,1.99 9.51,2.96 2.45,0.97 4.6,2.54 6.45,4.71 1.85,2.16 2.81,5.07 2.87,8.71 0,3.07 -0.86,5.82 -2.59,8.24 -1.73,2.42 -4.2,4.31 -7.43,5.69 -3.23,1.38 -6.98,2.07 -11.25,2.07zm34.37 -58.73c-2.82,0 -5.13,-0.83 -6.92,-2.49 -1.79,-1.66 -2.68,-3.72 -2.68,-6.16 0,-2.51 0.89,-4.6 2.68,-6.26 1.79,-1.66 4.09,-2.49 6.92,-2.49 2.76,0 5.04,0.83 6.82,2.49 1.79,1.66 2.68,3.75 2.68,6.26 0,2.45 -0.89,4.5 -2.68,6.16 -1.79,1.66 -4.06,2.49 -6.82,2.49zm8 5.46l0 52.52 -16.09 0 0 -52.52 16.09 0zm26.75 -0.75c3.7,0 6.95,0.75 9.74,2.26 2.79,1.51 4.94,3.48 6.45,5.93l0 -7.43 16.09 0 0 52.42c0,4.83 -0.96,9.21 -2.87,13.13 -1.91,3.92 -4.83,7.04 -8.75,9.36 -3.92,2.32 -8.8,3.48 -14.64,3.48 -7.78,0 -14.09,-1.83 -18.92,-5.51 -4.83,-3.67 -7.59,-8.64 -8.28,-14.92l15.91 0c0.5,2.01 1.69,3.59 3.58,4.75 1.88,1.16 4.2,1.74 6.96,1.74 3.32,0 5.98,-0.96 7.95,-2.87 1.98,-1.91 2.96,-4.97 2.96,-9.18l0 -7.44c-1.57,2.45 -3.73,4.44 -6.49,5.98 -2.76,1.54 -5.99,2.31 -9.69,2.31 -4.33,0 -8.25,-1.11 -11.76,-3.34 -3.51,-2.23 -6.29,-5.4 -8.33,-9.51 -2.04,-4.11 -3.06,-8.86 -3.06,-14.26 0,-5.4 1.02,-10.13 3.06,-14.21 2.04,-4.08 4.82,-7.22 8.33,-9.41 3.51,-2.2 7.44,-3.29 11.76,-3.29zm16.19 27.01c0,-4.02 -1.11,-7.18 -3.34,-9.51 -2.23,-2.32 -4.94,-3.48 -8.14,-3.48 -3.2,0 -5.91,1.14 -8.14,3.44 -2.23,2.29 -3.34,5.44 -3.34,9.46 0,4.02 1.11,7.2 3.34,9.55 2.23,2.35 4.94,3.53 8.14,3.53 3.2,0 5.91,-1.16 8.14,-3.48 2.23,-2.32 3.34,-5.49 3.34,-9.51zm54.89 -26.82c6.15,0 11.06,1.99 14.73,5.98 3.67,3.98 5.51,9.46 5.51,16.42l0 30.68 -16 0 0 -28.52c0,-3.51 -0.91,-6.24 -2.73,-8.19 -1.82,-1.95 -4.27,-2.92 -7.34,-2.92 -3.07,0 -5.52,0.97 -7.34,2.92 -1.82,1.95 -2.73,4.67 -2.73,8.19l0 28.52 -16.09 0 0 -52.52 16.09 0 0 6.96c1.63,-2.32 3.83,-4.16 6.59,-5.51 2.76,-1.35 5.87,-2.02 9.32,-2.02zm47.92 53.83c-4.58,0 -8.66,-0.78 -12.24,-2.35 -3.58,-1.57 -6.4,-3.72 -8.47,-6.45 -2.07,-2.73 -3.23,-5.79 -3.48,-9.18l15.91 0c0.19,1.82 1.04,3.29 2.54,4.42 1.51,1.13 3.36,1.69 5.55,1.69 2.01,0 3.56,-0.39 4.66,-1.18 1.1,-0.78 1.65,-1.8 1.65,-3.06 0,-1.51 -0.78,-2.62 -2.35,-3.34 -1.57,-0.72 -4.11,-1.52 -7.62,-2.4 -3.76,-0.88 -6.9,-1.8 -9.41,-2.78 -2.51,-0.97 -4.67,-2.51 -6.49,-4.61 -1.82,-2.1 -2.73,-4.94 -2.73,-8.52 0,-3.01 0.83,-5.76 2.49,-8.23 1.66,-2.48 4.11,-4.44 7.34,-5.88 3.23,-1.44 7.07,-2.16 11.53,-2.16 6.59,0 11.78,1.63 15.58,4.89 3.8,3.26 5.98,7.59 6.54,12.99l-14.87 0c-0.25,-1.82 -1.05,-3.26 -2.4,-4.33 -1.35,-1.07 -3.12,-1.6 -5.32,-1.6 -1.88,0 -3.33,0.36 -4.33,1.08 -1,0.72 -1.51,1.71 -1.51,2.96 0,1.51 0.8,2.64 2.4,3.39 1.6,0.75 4.09,1.51 7.48,2.26 3.89,1 7.06,1.99 9.51,2.96 2.45,0.97 4.6,2.54 6.45,4.71 1.85,2.16 2.81,5.07 2.87,8.71 0,3.07 -0.86,5.82 -2.59,8.24 -1.73,2.42 -4.2,4.31 -7.43,5.69 -3.23,1.38 -6.98,2.07 -11.25,2.07z"/>
   <path class="fil0" d="M245.42 87.13c0.42,-0.73 1.03,-1.33 1.84,-1.8 0.81,-0.46 1.73,-0.7 2.76,-0.7 1.11,0 2.1,0.26 2.99,0.79 0.88,0.52 1.58,1.26 2.09,2.21 0.51,0.95 0.76,2.06 0.76,3.31 0,1.24 -0.25,2.35 -0.76,3.32 -0.51,0.97 -1.21,1.73 -2.1,2.27 -0.89,0.54 -1.88,0.81 -2.98,0.81 -1.06,0 -2,-0.23 -2.8,-0.7 -0.8,-0.46 -1.4,-1.06 -1.81,-1.77l0 2.27 -2.04 0 0 -16.62 2.04 0 0 6.6zm8.35 3.82c0,-0.93 -0.19,-1.74 -0.56,-2.43 -0.37,-0.69 -0.88,-1.21 -1.52,-1.57 -0.64,-0.36 -1.34,-0.54 -2.1,-0.54 -0.75,0 -1.44,0.18 -2.08,0.55 -0.64,0.37 -1.15,0.9 -1.53,1.59 -0.38,0.7 -0.57,1.5 -0.57,2.41 0,0.93 0.19,1.74 0.57,2.44 0.38,0.7 0.89,1.23 1.53,1.59 0.64,0.37 1.33,0.55 2.08,0.55 0.76,0 1.46,-0.18 2.1,-0.55 0.64,-0.37 1.14,-0.9 1.52,-1.59 0.37,-0.7 0.56,-1.52 0.56,-2.46zm16.67 -6.11l-7.41 18.1 -2.11 0 2.43 -5.93 -4.96 -12.17 2.27 0 3.86 9.97 3.82 -9.97 2.11 0z"/>
   <path class="fil0" d="M302.89 92.21c0,3.32 -1.14,6.08 -3.41,8.27 -2.27,2.2 -5.74,3.29 -10.39,3.29l-7.67 0 0 16.66 -5.21 0 0 -39.91 12.88 0c4.5,0 7.93,1.09 10.28,3.26 2.35,2.18 3.52,4.98 3.52,8.42zm-13.8 7.27c2.9,0 5.04,-0.63 6.41,-1.89 1.37,-1.26 2.06,-3.05 2.06,-5.38 0,-4.92 -2.82,-7.39 -8.47,-7.39l-7.67 0 0 14.66 7.67 0zm12.47 5.15c0,-3.21 0.65,-6.02 1.95,-8.45 1.3,-2.42 3.08,-4.3 5.35,-5.64 2.27,-1.34 4.8,-2 7.59,-2 2.75,0 5.13,0.59 7.16,1.77 2.02,1.18 3.53,2.67 4.52,4.47l0 -5.73 5.27 0 0 31.38 -5.27 0 0 -5.84c-1.03,1.83 -2.57,3.35 -4.61,4.55 -2.04,1.2 -4.42,1.8 -7.13,1.8 -2.79,0 -5.31,-0.69 -7.56,-2.06 -2.25,-1.37 -4.03,-3.3 -5.33,-5.78 -1.3,-2.48 -1.95,-5.31 -1.95,-8.47zm26.57 0.06c0,-2.37 -0.48,-4.43 -1.43,-6.18 -0.95,-1.76 -2.24,-3.1 -3.87,-4.04 -1.62,-0.94 -3.41,-1.4 -5.35,-1.4 -1.95,0 -3.72,0.46 -5.33,1.37 -1.6,0.92 -2.88,2.25 -3.84,4.01 -0.95,1.76 -1.43,3.82 -1.43,6.18 0,2.4 0.48,4.49 1.43,6.27 0.95,1.78 2.23,3.13 3.84,4.07 1.6,0.94 3.38,1.4 5.33,1.4 1.95,0 3.73,-0.47 5.35,-1.4 1.62,-0.94 2.91,-2.29 3.87,-4.07 0.95,-1.78 1.43,-3.85 1.43,-6.21zm13.44 -9.85c1.03,-1.79 2.57,-3.29 4.61,-4.49 2.04,-1.2 4.42,-1.8 7.13,-1.8 2.79,0 5.32,0.67 7.59,2 2.27,1.34 4.06,3.22 5.35,5.64 1.3,2.42 1.95,5.24 1.95,8.45 0,3.17 -0.65,5.99 -1.95,8.47 -1.3,2.48 -3.08,4.41 -5.35,5.78 -2.27,1.37 -4.8,2.06 -7.59,2.06 -2.67,0 -5.03,-0.6 -7.07,-1.8 -2.04,-1.2 -3.6,-2.7 -4.67,-4.49l0 20.67 -5.21 0 0 -46.26 5.21 0 0 5.78zm21.3 9.79c0,-2.37 -0.48,-4.43 -1.43,-6.18 -0.95,-1.76 -2.24,-3.09 -3.86,-4.01 -1.62,-0.92 -3.41,-1.37 -5.35,-1.37 -1.91,0 -3.67,0.47 -5.3,1.4 -1.62,0.93 -2.92,2.29 -3.89,4.06 -0.97,1.78 -1.46,3.83 -1.46,6.15 0,2.37 0.49,4.44 1.46,6.21 0.97,1.78 2.27,3.13 3.89,4.07 1.62,0.94 3.39,1.4 5.3,1.4 1.95,0 3.73,-0.47 5.35,-1.4 1.62,-0.94 2.91,-2.29 3.86,-4.07 0.95,-1.78 1.43,-3.87 1.43,-6.27zm11.55 -9.79c1.03,-1.79 2.57,-3.29 4.61,-4.49 2.04,-1.2 4.42,-1.8 7.13,-1.8 2.79,0 5.32,0.67 7.59,2 2.27,1.34 4.06,3.22 5.35,5.64 1.3,2.42 1.95,5.24 1.95,8.45 0,3.17 -0.65,5.99 -1.95,8.47 -1.3,2.48 -3.08,4.41 -5.35,5.78 -2.27,1.37 -4.8,2.06 -7.59,2.06 -2.67,0 -5.03,-0.6 -7.07,-1.8 -2.04,-1.2 -3.6,-2.7 -4.67,-4.49l0 20.67 -5.21 0 0 -46.26 5.21 0 0 5.78zm21.3 9.79c0,-2.37 -0.48,-4.43 -1.43,-6.18 -0.95,-1.76 -2.24,-3.09 -3.86,-4.01 -1.62,-0.92 -3.41,-1.37 -5.35,-1.37 -1.91,0 -3.67,0.47 -5.3,1.4 -1.62,0.93 -2.92,2.29 -3.89,4.06 -0.97,1.78 -1.46,3.83 -1.46,6.15 0,2.37 0.49,4.44 1.46,6.21 0.97,1.78 2.27,3.13 3.89,4.07 1.62,0.94 3.39,1.4 5.3,1.4 1.95,0 3.73,-0.47 5.35,-1.4 1.62,-0.94 2.91,-2.29 3.86,-4.07 0.95,-1.78 1.43,-3.87 1.43,-6.27zm33.37 -15.57l-18.9 46.15 -5.38 0 6.18 -15.12 -12.65 -31.03 5.78 0 9.85 25.42 9.73 -25.42 5.38 0z"/>
  </g>
 </g>
</svg>
